<svg xmlns="http://www.w3.org/2000/svg" aria-labelledby="t" role="img" viewBox="0 0 64 64"><title id="t">BIN Query</title><defs><linearGradient id="g" x1="0" x2="1" y1="0" y2="1"><stop offset="0" stop-color="#8a5cff"/><stop offset=".52" stop-color="#4338ca"/><stop offset="1" stop-color="#0e9f95"/></linearGradient><radialGradient id="h" cx=".2" cy=".08" r=".85"><stop offset="0" stop-color="#fff" stop-opacity=".35"/><stop offset=".6" stop-color="#fff" stop-opacity="0"/></radialGradient></defs><rect width="64" height="64" fill="url(#g)" rx="15"/><rect width="64" height="64" fill="url(#h)" rx="15"/><circle cx="27" cy="27" r="10.75" fill="#1b0f5c" opacity=".22"/><path fill="none" stroke="#fff" stroke-linecap="round" stroke-width="1.4" d="M19.2 23.4a8.8 8.8 0 0 1 5.4-5.3" opacity=".45"/><g fill="#fff" opacity=".75"><circle cx="21.9" cy="21.8" r="1.2"/><circle cx="25.3" cy="21.8" r="1.2"/><circle cx="28.7" cy="21.8" r="1.2"/><circle cx="32.1" cy="21.8" r="1.2"/><circle cx="21.9" cy="32.2" r="1.2"/><circle cx="25.3" cy="32.2" r="1.2"/><circle cx="28.7" cy="32.2" r="1.2"/><circle cx="32.1" cy="32.2" r="1.2"/></g><g fill="#8ff5e2"><circle cx="18.5" cy="27" r="1.55"/><circle cx="21.9" cy="27" r="1.55"/><circle cx="25.3" cy="27" r="1.55"/><circle cx="28.7" cy="27" r="1.55"/><circle cx="32.1" cy="27" r="1.55"/><circle cx="35.5" cy="27" r="1.55"/></g><circle cx="27" cy="27" r="13.5" fill="none" stroke="#fff" stroke-width="5.5"/><path fill="#fff" fill-rule="evenodd" d="M-6.1-5.75H6.1A2.4 2.4 0 0 1 8.5-3.35V3.35A2.4 2.4 0 0 1 6.1 5.75H-6.1A2.4 2.4 0 0 1-8.5 3.35V-3.35A2.4 2.4 0 0 1-6.1-5.75ZM-8.5-3.2V-.8H8.5V-3.2Z" transform="translate(45.2 45.2) rotate(45)"/></svg>